<?xml version="1.0" standalone="no"?>
<!DOCTYPE svg PUBLIC "-//W3C//DTD SVG 20010904//EN"
 "http://www.w3.org/TR/2001/REC-SVG-20010904/DTD/svg10.dtd">
<svg version="1.0" xmlns="http://www.w3.org/2000/svg"
 width="700.000000pt" height="700.000000pt" viewBox="0 0 700.000000 700.000000"
 preserveAspectRatio="xMidYMid meet">
<metadata>
Created by potrace 1.14, written by Peter Selinger 2001-2017
</metadata>
<g transform="translate(0.000000,700.000000) scale(0.100000,-0.100000)"
fill="#000000" stroke="none">
<path d="M4647 6144 c-2 -2 -80 -25 -173 -50 -93 -25 -235 -63 -316 -85 -81
-22 -157 -42 -169 -44 -12 -3 -43 -11 -68 -19 -25 -8 -91 -26 -146 -40 -55
-14 -201 -53 -325 -87 -124 -34 -233 -63 -243 -65 -10 -2 -78 -19 -150 -39
-73 -20 -140 -38 -150 -40 -9 -2 -59 -15 -110 -30 -227 -63 -387 -105 -399
-105 -7 0 -25 -7 -40 -14 -16 -8 -28 -11 -28 -7 0 5 -15 11 -32 14 -36 5 -388
98 -558 147 -35 10 -351 95 -490 131 -41 11 -82 22 -90 24 -8 2 -91 24 -185
49 -93 25 -228 62 -300 81 -163 44 -267 53 -354 31 -161 -41 -268 -151 -307
-316 -11 -45 -14 -430 -13 -2065 1 -1745 3 -2019 16 -2080 15 -72 89 -245 104
-245 5 0 9 -5 9 -11 0 -32 143 -180 229 -238 100 -68 164 -93 371 -146 58 -14
116 -31 130 -35 14 -5 36 -12 50 -14 14 -3 68 -17 120 -31 52 -15 138 -37 190
-51 52 -13 118 -31 145 -39 53 -16 583 -157 650 -174 22 -5 83 -21 135 -36
106 -30 122 -34 165 -41 25 -5 470 106 730 181 104 31 241 67 265 71 14 3 45
11 70 19 25 7 88 25 140 39 52 13 291 77 530 141 239 64 442 118 450 120 8 2
50 13 92 24 l78 21 147 -40 c125 -34 356 -96 746 -199 42 -12 112 -30 155 -42
42 -11 100 -27 127 -34 163 -43 225 -60 360 -97 254 -69 288 -75 382 -72 100
3 150 18 228 70 84 55 142 139 169 244 13 47 15 345 13 2095 -2 1932 -3 2043
-20 2095 -73 225 -214 399 -407 503 -62 34 -195 81 -262 92 -17 3 -34 8 -37
10 -4 2 -101 28 -216 59 -116 31 -226 60 -245 66 -79 22 -266 72 -285 76 -11
2 -60 15 -110 29 -169 47 -699 188 -742 198 -12 3 -24 3 -26 1z"/>
</g>
</svg>
